<svg xmlns="http://www.w3.org/2000/svg" viewBox="0 0 32 32">
  <rect width="32" height="32" rx="7" fill="#3193cc"/>
  <g transform="translate(2.24 10.64) scale(0.1787)" fill="#fff">
    <path d="M85.6571 43.9703L79.5637 57.8372H91.769L92.6681 55.8128L85.6571 43.9703Z"/>
    <path d="M81.4475 24.5476L66.9888 2.20161H66.2652L41.5571 57.8374H53.7628L66.793 28.4975L69.1922 32.5485L81.4475 24.5476Z"/>
    <path d="M116.142 2.20866L80.4373 35.1566L85.6557 43.9707L92.6666 55.8133L116.473 2.20866H116.142Z"/>
    <path d="M115.745 2.20866L114.685 2.89815L69.1926 32.5488L74.1653 40.9456L116.144 2.20866H115.745Z"/>
    <path d="M28.9048 2.18743L4.25239 57.7523H18.3994L27.269 37.7574H43.5891L48.8266 25.8907H32.5591L37.82 14.054H56.2189L61.4843 2.18743H28.9048Z"/>
    <path d="M121.351 2.18742L96.6979 57.7523H110.846L119.715 37.7573H136.035L141.273 25.8907H125.005L130.266 14.054H148.665L153.93 2.18742H121.351Z"/>
  </g>
</svg>
