<svg xmlns="http://www.w3.org/2000/svg" viewBox="0 0 32 32">
  <rect width="32" height="32" rx="7" fill="#3193cc"/>
  <g transform="translate(6 6) scale(0.5)" fill="#fff">
    <path d="M34.88 5.12C32.76 3 29.18 2.75 24.78 4.45c-1.57.6-3.17 1.43-4.78 2.43-1.62-1.02-3.23-1.83-4.78-2.43-4.38-1.68-7.98-1.45-10.1.67-2.12 2.12-2.37 5.7-.67 10.1.6 1.57 1.43 3.17 2.43 4.78a30 30 0 0 0-2.43 4.78c-1.68 4.38-1.45 7.98.67 10.1 1.18 1.18 2.83 1.78 4.82 1.78 1.57 0 3.35-.37 5.28-1.12 1.57-.6 3.17-1.43 4.78-2.43 1.62 1.02 3.24 1.83 4.78 2.43 1.93.75 3.72 1.12 5.28 1.12 1.98 0 3.63-.6 4.82-1.78 2.12-2.12 2.37-5.7.67-10.1-.6-1.57-1.43-3.17-2.43-4.78a30 30 0 0 0 2.43-4.78c1.68-4.38 1.45-7.98-.67-10.1ZM7.56 14.02c-1.15-3-1.18-5.45-.08-6.55.53-.53 1.38-.8 2.47-.8 1.13 0 2.53.3 4.07.88.97.37 1.97.85 2.98 1.42a45 45 0 0 0-8 8.02c-.57-1.02-1.05-2-1.42-2.97v.02ZM20 10.9a45 45 0 0 1 9.1 9.1 45 45 0 0 1-9.1 9.1 45 45 0 0 1-9.1-9.1 45 45 0 0 1 9.1-9.1ZM14.02 32.43c-3 1.15-5.45 1.18-6.55.08-1.1-1.1-1.07-3.55.08-6.55.37-.97.85-1.97 1.42-2.98a45 45 0 0 0 8.02 8.02c-1.02.57-2 1.05-2.97 1.42Zm18.4-6.47c1.15 3 1.18 5.45.08 6.55s-3.55 1.07-6.55-.08c-.97-.37-1.97-.85-2.98-1.42a45 45 0 0 0 8.02-8.02c.57 1.02 1.05 2 1.42 2.98Zm0-11.96c-.37.97-.85 1.97-1.42 2.98a45 45 0 0 0-8.02-8.02c1.02-.57 2-1.05 2.98-1.42 1.53-.58 2.93-.88 4.07-.88 1.13 0 1.93.27 2.48.8 1.1 1.1 1.07 3.55-.08 6.55Z"/>
    <circle cx="20" cy="20" r="4.18"/>
  </g>
</svg>
