<svg preserveAspectRatio="none" width="100%" height="100%" overflow="visible" style="display: block;" viewBox="0 0 32 32" fill="none" xmlns="http://www.w3.org/2000/svg">
<g id="boxicons:science">
<path id="Vector" d="M27.9056 4.0932C26.2122 2.39987 23.3456 2.19987 19.8256 3.55987C18.5722 4.03987 17.2922 4.70654 15.9989 5.50654C14.7056 4.6932 13.4122 4.03987 12.1722 3.55987C8.66556 2.2132 5.78556 2.39987 4.09223 4.0932C2.39889 5.78654 2.19889 8.6532 3.55889 12.1732C4.03889 13.4265 4.70556 14.7065 5.50556 15.9999C4.69223 17.2932 4.03889 18.5865 3.55889 19.8265C2.21223 23.3332 2.39889 26.2132 4.09223 27.9065C5.03889 28.8532 6.35889 29.3332 7.94556 29.3332C9.19889 29.3332 10.6256 29.0399 12.1722 28.4399C13.4256 27.9599 14.7056 27.2932 15.9989 26.4932C17.2922 27.3065 18.5856 27.9599 19.8256 28.4399C21.3722 29.0399 22.7989 29.3332 24.0522 29.3332C25.6389 29.3332 26.9589 28.8532 27.9056 27.9065C29.5989 26.2132 29.7989 23.3465 28.4389 19.8265C27.9589 18.5732 27.2922 17.2932 26.4922 15.9999C27.3056 14.7065 27.9589 13.4132 28.4389 12.1732C29.7856 8.66654 29.5989 5.78654 27.9056 4.0932ZM6.05223 11.2132C5.13223 8.8132 5.10556 6.8532 5.98556 5.9732C6.41223 5.54654 7.09223 5.3332 7.95889 5.3332C8.86556 5.3332 9.98556 5.5732 11.2122 6.03987C11.9856 6.3332 12.7856 6.71987 13.5989 7.1732C11.1955 9.0277 9.04006 11.1831 7.18556 13.5865C6.73223 12.7732 6.34556 11.9865 6.05223 11.1999V11.2132ZM15.9989 8.71987C18.8011 10.7395 21.2593 13.1977 23.2789 15.9999C21.2593 18.802 18.8011 21.2603 15.9989 23.2799C13.1967 21.2603 10.7385 18.802 8.71889 15.9999C10.7385 13.1977 13.1967 10.7395 15.9989 8.71987ZM11.2122 25.9465C8.81223 26.8665 6.85223 26.8932 5.97223 26.0132C5.09223 25.1332 5.11889 23.1732 6.03889 20.7732C6.33223 19.9999 6.71889 19.1999 7.17223 18.3865C9.02672 20.79 11.1821 22.9454 13.5856 24.7999C12.7722 25.2532 11.9856 25.6399 11.1989 25.9332L11.2122 25.9465ZM25.9456 20.7732C26.8656 23.1732 26.8922 25.1332 26.0122 26.0132C25.1322 26.8932 23.1722 26.8665 20.7722 25.9465C19.9989 25.6532 19.1989 25.2665 18.3856 24.8132C20.789 22.9587 22.9444 20.8033 24.7989 18.3999C25.2522 19.2132 25.6389 19.9999 25.9322 20.7865L25.9456 20.7732ZM25.9456 11.1999C25.6522 11.9732 25.2656 12.7732 24.8122 13.5865C22.9577 11.1831 20.8023 9.0277 18.3989 7.1732C19.2122 6.71987 19.9989 6.3332 20.7856 6.03987C22.0122 5.5732 23.1322 5.3332 24.0389 5.3332C24.9456 5.3332 25.5856 5.54654 26.0256 5.9732C26.9056 6.8532 26.8789 8.8132 25.9589 11.2132L25.9456 11.1999Z" fill="var(--fill-0, #3193CC)"/>
<path id="Vector_2" d="M18.3563 18.3602C19.6629 17.0535 19.6629 14.9468 18.3563 13.6402C17.0496 12.3335 14.9429 12.3335 13.6363 13.6402C12.3296 14.9468 12.3296 17.0535 13.6363 18.3602C14.9429 19.6668 17.0496 19.6668 18.3563 18.3602Z" fill="var(--fill-0, #3193CC)"/>
</g>
</svg>
