<svg preserveAspectRatio="none" width="100%" height="100%" overflow="visible" style="display: block;" viewBox="0 0 96 96" fill="none" xmlns="http://www.w3.org/2000/svg">
<g id="Group 14">
<circle id="Ellipse 15" cx="48" cy="48" r="48" fill="var(--fill-0, white)"/>
<circle id="Ellipse 16" cx="48" cy="48" r="39" fill="var(--fill-0, white)" stroke="var(--stroke-0, #3496CE)" stroke-width="2"/>
<g id="ph:person-simple-run-bold">
<path id="Vector" d="M50.9951 43.5C51.8851 43.5 52.7552 43.2361 53.4952 42.7416C54.2352 42.2471 54.812 41.5443 55.1526 40.7221C55.4932 39.8998 55.5823 38.995 55.4087 38.1221C55.235 37.2492 54.8064 36.4474 54.1771 35.818C53.5478 35.1887 52.746 34.7601 51.873 34.5865C51.0001 34.4128 50.0953 34.5019 49.2731 34.8425C48.4508 35.1831 47.748 35.7599 47.2535 36.4999C46.7591 37.24 46.4951 38.11 46.4951 39C46.4951 40.1935 46.9692 41.3381 47.8132 42.182C48.6571 43.0259 49.8017 43.5 50.9951 43.5ZM50.9951 37.5C51.2918 37.5 51.5818 37.588 51.8285 37.7528C52.0752 37.9176 52.2674 38.1519 52.381 38.426C52.4945 38.7001 52.5242 39.0017 52.4663 39.2926C52.4084 39.5836 52.2656 39.8509 52.0558 40.0607C51.846 40.2704 51.5787 40.4133 51.2878 40.4712C50.9968 40.5291 50.6952 40.4994 50.4211 40.3858C50.147 40.2723 49.9128 40.08 49.7479 39.8334C49.5831 39.5867 49.4951 39.2967 49.4951 39C49.4951 38.6022 49.6532 38.2206 49.9345 37.9393C50.2158 37.658 50.5973 37.5 50.9951 37.5ZM60.4951 49.175C60.4952 49.4622 60.4127 49.7434 60.2576 49.9852C60.1025 50.2269 59.8812 50.4191 59.6201 50.5388C58.7579 50.8439 57.851 51.0036 56.9364 51.0113C55.1864 51.0113 52.6551 50.5338 49.4651 48.6363C49.0955 49.5386 48.6667 50.4155 48.1814 51.2613C51.1351 52.3538 55.4951 54.975 55.4951 61C55.4951 61.3978 55.3371 61.7794 55.0558 62.0607C54.7745 62.342 54.393 62.5 53.9951 62.5C53.5973 62.5 53.2158 62.342 52.9345 62.0607C52.6532 61.7794 52.4951 61.3978 52.4951 61C52.4951 58.6638 51.6264 56.8675 49.8376 55.5075C48.6926 54.6325 47.3939 54.1325 46.4089 53.84C46.3076 53.965 46.2039 54.09 46.0964 54.2088C43.5964 57.0675 40.4939 58.5538 37.0651 58.5538C36.6581 58.5538 36.2513 58.5334 35.8464 58.4925C35.6493 58.4743 35.4577 58.4173 35.2828 58.3247C35.1078 58.2321 34.9529 58.1058 34.827 57.953C34.7011 57.8003 34.6066 57.6242 34.5491 57.4348C34.4916 57.2454 34.4721 57.0464 34.4918 56.8495C34.5115 56.6525 34.57 56.4614 34.664 56.2872C34.7579 56.1129 34.8854 55.959 35.039 55.8342C35.1927 55.7095 35.3696 55.6164 35.5594 55.5603C35.7493 55.5042 35.9483 55.4863 36.1451 55.5075C42.6826 56.16 45.8301 49.7675 46.8689 47.0388C42.5951 44.8075 39.9626 46.8475 39.9339 46.875C39.6223 47.1091 39.2318 47.2127 38.8452 47.1639C38.4585 47.1151 38.1061 46.9178 37.8624 46.6137C37.6187 46.3095 37.5029 45.9225 37.5396 45.5345C37.5763 45.1465 37.7625 44.7881 38.0589 44.535C38.2551 44.375 42.9951 40.68 49.8389 45.3275C55.2264 48.9913 58.3514 47.8175 58.4014 47.7975C58.6294 47.6992 58.8782 47.6591 59.1255 47.6807C59.3729 47.7023 59.611 47.7849 59.8185 47.9212C60.0261 48.0575 60.1965 48.2431 60.3146 48.4615C60.4327 48.6799 60.4947 48.9242 60.4951 49.1725V49.175Z" fill="var(--fill-0, #3496CE)"/>
</g>
</g>
</svg>
