<svg preserveAspectRatio="none" width="100%" height="100%" overflow="visible" style="display: block;" viewBox="0 0 96 96" fill="none" xmlns="http://www.w3.org/2000/svg">
<g id="Group 14">
<circle id="Ellipse 15" cx="48" cy="48" r="48" fill="var(--fill-0, white)"/>
<circle id="Ellipse 16" cx="48" cy="48" r="39" fill="var(--fill-0, white)" stroke="var(--stroke-0, #3496CE)" stroke-width="2"/>
<g id="hugeicons:bone-02">
<path id="Vector" d="M38.3305 61.3333L43.0639 56.6C43.4812 56.184 44.1532 56.204 44.6825 56.464C45.137 56.6859 45.6371 56.7982 46.1428 56.7917C46.6484 56.7853 47.1456 56.6603 47.5942 56.4268C48.0428 56.1934 48.4304 55.8579 48.7258 55.4475C49.0212 55.037 49.2163 54.563 49.2952 54.0635C49.3742 53.564 49.3349 53.0529 49.1805 52.5713C49.026 52.0898 48.7608 51.6511 48.4061 51.2907C48.0514 50.9303 47.617 50.658 47.138 50.4959C46.659 50.3338 46.1486 50.2863 45.6479 50.3573C44.9785 50.452 44.3332 50.7573 43.8185 51.272M45.6479 50.3573C45.7188 49.8566 45.6713 49.3462 45.5092 48.8672C45.3471 48.3881 45.0749 47.9538 44.7145 47.5991C44.354 47.2444 43.9154 46.9791 43.4338 46.8247C42.9523 46.6703 42.4412 46.631 41.9417 46.7099C41.4422 46.7889 40.9681 46.9839 40.5577 47.2794C40.1472 47.5748 39.8118 47.9624 39.5783 48.411C39.3449 48.8596 39.2199 49.3567 39.2135 49.8624C39.207 50.3681 39.3193 50.8682 39.5412 51.3226C39.8012 51.852 39.8212 52.524 39.4052 52.9413L34.6719 57.6746M57.6799 34.6666L52.9465 39.4C52.5292 39.816 51.8572 39.796 51.3279 39.536C50.8735 39.314 50.3733 39.2018 49.8676 39.2082C49.362 39.2147 48.8649 39.3396 48.4162 39.5731C47.9676 39.8065 47.5801 40.142 47.2846 40.5524C46.9892 40.9629 46.7942 41.4369 46.7152 41.9364C46.6362 42.4359 46.6755 42.947 46.83 43.4286C46.9844 43.9101 47.2496 44.3488 47.6043 44.7092C47.9591 45.0697 48.3934 45.3419 48.8724 45.504C49.3514 45.6661 49.8618 45.7136 50.3625 45.6426C51.0319 45.548 51.6772 45.2426 52.1919 44.728M50.3625 45.6426C50.2916 46.1433 50.3391 46.6537 50.5012 47.1327C50.6633 47.6118 50.9355 48.0461 51.2959 48.4008C51.6564 48.7556 52.095 49.0208 52.5766 49.1752C53.0582 49.3296 53.5692 49.3689 54.0687 49.29C54.5683 49.211 55.0423 49.016 55.4527 48.7205C55.8632 48.4251 56.1986 48.0375 56.4321 47.5889C56.6655 47.1403 56.7905 46.6432 56.797 46.1375C56.8034 45.6318 56.6911 45.1317 56.4692 44.6773C56.2092 44.148 56.1892 43.476 56.6052 43.0586L61.3385 38.3253M53.3385 56V58.6666M56.0052 53.3333H58.6719M42.6719 40V37.3333M40.0052 42.6666H37.3385" stroke="var(--stroke-0, #3496CE)" stroke-width="2.5" stroke-linecap="round" stroke-linejoin="round"/>
</g>
</g>
</svg>
