<svg preserveAspectRatio="none" width="100%" height="100%" overflow="visible" style="display: block;" viewBox="0 0 26.6006 26.6" fill="none" xmlns="http://www.w3.org/2000/svg">
<g id="Group">
<path id="Vector" d="M1.3 18.9C1.3 20.5974 1.97428 22.2253 3.17452 23.4255C4.37475 24.6257 6.00261 25.3 7.7 25.3C9.39739 25.3 11.0253 24.6257 12.2255 23.4255C13.4257 22.2253 14.1 20.5974 14.1 18.9C14.1 17.2026 13.4257 15.5747 12.2255 14.3745C11.0253 13.1743 9.39739 12.5 7.7 12.5C6.00261 12.5 4.37475 13.1743 3.17452 14.3745C1.97428 15.5747 1.3 17.2026 1.3 18.9Z" stroke="var(--stroke-0, #3496CE)" stroke-width="2.6" stroke-linecap="round" stroke-linejoin="round"/>
<path id="Vector_2" d="M15.6984 9.30004C15.6984 10.5734 16.2043 11.7945 17.1046 12.6949C18.005 13.5953 19.2262 14.1011 20.4995 14.1011C21.7728 14.1011 22.994 13.5953 23.8944 12.6949C24.7947 11.7945 25.3006 10.5734 25.3006 9.30004C25.3006 8.02672 24.7947 6.80555 23.8944 5.90517C22.994 5.0048 21.7728 4.49897 20.4995 4.49897C19.2262 4.49897 18.005 5.0048 17.1046 5.90517C16.2043 6.80555 15.6984 8.02672 15.6984 9.30004Z" stroke="var(--stroke-0, #3496CE)" stroke-width="2.6" stroke-linecap="round" stroke-linejoin="round"/>
<path id="Vector_3" d="M5.3 18.9C5.3 18.2635 5.55286 17.653 6.00294 17.2029C6.45303 16.7529 7.06348 16.5 7.7 16.5" stroke="var(--stroke-0, #3496CE)" stroke-width="2.6" stroke-linecap="round" stroke-linejoin="round"/>
<path id="Vector_4" d="M13.2615 15.7256L16.9266 12.5M16.117 7.348L9.19539 4.40827M4.50312 3.7C4.50312 4.33652 4.75598 4.94697 5.20607 5.39706C5.65616 5.84714 6.26661 6.1 6.90312 6.1C7.53964 6.1 8.15009 5.84714 8.60018 5.39706C9.05027 4.94697 9.30313 4.33652 9.30313 3.7C9.30313 3.06348 9.05027 2.45303 8.60018 2.00294C8.15009 1.55286 7.53964 1.3 6.90312 1.3C6.26661 1.3 5.65616 1.55286 5.20607 2.00294C4.75598 2.45303 4.50312 3.06348 4.50312 3.7Z" stroke="var(--stroke-0, #3496CE)" stroke-width="2.6" stroke-linecap="round" stroke-linejoin="round"/>
</g>
</svg>
