<svg preserveAspectRatio="none" width="100%" height="100%" overflow="visible" style="display: block;" viewBox="0 0 96 96" fill="none" xmlns="http://www.w3.org/2000/svg">
<g id="Group 14">
<circle id="Ellipse 15" cx="48" cy="48" r="48" fill="var(--fill-0, white)"/>
<circle id="Ellipse 16" cx="48" cy="48" r="39" fill="var(--fill-0, white)" stroke="var(--stroke-0, #3496CE)" stroke-width="2"/>
<g id="boxicons:science">
<path id="Vector" d="M59.9056 36.0934C58.2122 34.4001 55.3456 34.2001 51.8256 35.5601C50.5722 36.0401 49.2922 36.7068 47.9989 37.5068C46.7056 36.6934 45.4122 36.0401 44.1722 35.5601C40.6656 34.2134 37.7856 34.4001 36.0922 36.0934C34.3989 37.7868 34.1989 40.6534 35.5589 44.1734C36.0389 45.4268 36.7056 46.7068 37.5056 48.0001C36.6922 49.2934 36.0389 50.5868 35.5589 51.8268C34.2122 55.3334 34.3989 58.2134 36.0922 59.9068C37.0389 60.8534 38.3589 61.3334 39.9456 61.3334C41.1989 61.3334 42.6256 61.0401 44.1722 60.4401C45.4256 59.9601 46.7056 59.2934 47.9989 58.4934C49.2922 59.3068 50.5856 59.9601 51.8256 60.4401C53.3722 61.0401 54.7989 61.3334 56.0522 61.3334C57.6389 61.3334 58.9589 60.8534 59.9056 59.9068C61.5989 58.2134 61.7989 55.3468 60.4389 51.8268C59.9589 50.5734 59.2922 49.2934 58.4922 48.0001C59.3056 46.7068 59.9589 45.4134 60.4389 44.1734C61.7856 40.6668 61.5989 37.7868 59.9056 36.0934ZM38.0522 43.2134C37.1322 40.8134 37.1056 38.8534 37.9856 37.9734C38.4122 37.5468 39.0922 37.3334 39.9589 37.3334C40.8656 37.3334 41.9856 37.5734 43.2122 38.0401C43.9856 38.3334 44.7856 38.7201 45.5989 39.1734C43.1955 41.0279 41.0401 43.1833 39.1856 45.5868C38.7322 44.7734 38.3456 43.9868 38.0522 43.2001V43.2134ZM47.9989 40.7201C50.8011 42.7397 53.2593 45.1979 55.2789 48.0001C53.2593 50.8023 50.8011 53.2605 47.9989 55.2801C45.1967 53.2605 42.7385 50.8023 40.7189 48.0001C42.7385 45.1979 45.1967 42.7397 47.9989 40.7201ZM43.2122 57.9468C40.8122 58.8668 38.8522 58.8934 37.9722 58.0134C37.0922 57.1334 37.1189 55.1734 38.0389 52.7734C38.3322 52.0001 38.7189 51.2001 39.1722 50.3868C41.0267 52.7902 43.1821 54.9456 45.5856 56.8001C44.7722 57.2534 43.9856 57.6401 43.1989 57.9334L43.2122 57.9468ZM57.9456 52.7734C58.8656 55.1734 58.8922 57.1334 58.0122 58.0134C57.1322 58.8934 55.1722 58.8668 52.7722 57.9468C51.9989 57.6534 51.1989 57.2668 50.3856 56.8134C52.789 54.959 54.9444 52.8036 56.7989 50.4001C57.2522 51.2134 57.6389 52.0001 57.9322 52.7868L57.9456 52.7734ZM57.9456 43.2001C57.6522 43.9734 57.2656 44.7734 56.8122 45.5868C54.9577 43.1833 52.8023 41.0279 50.3989 39.1734C51.2122 38.7201 51.9989 38.3334 52.7856 38.0401C54.0122 37.5734 55.1322 37.3334 56.0389 37.3334C56.9456 37.3334 57.5856 37.5468 58.0256 37.9734C58.9056 38.8534 58.8789 40.8134 57.9589 43.2134L57.9456 43.2001Z" fill="var(--fill-0, #3496CE)"/>
<path id="Vector_2" d="M50.3641 50.3599C51.6707 49.0532 51.6707 46.9466 50.3641 45.6399C49.0574 44.3332 46.9507 44.3332 45.6441 45.6399C44.3374 46.9466 44.3374 49.0532 45.6441 50.3599C46.9507 51.6666 49.0574 51.6666 50.3641 50.3599Z" fill="var(--fill-0, #3496CE)"/>
</g>
</g>
</svg>
