<svg preserveAspectRatio="none" width="100%" height="100%" overflow="visible" style="display: block;" viewBox="0 0 96 96" fill="none" xmlns="http://www.w3.org/2000/svg">
<g id="Group 14">
<circle id="Ellipse 15" cx="48" cy="48" r="48" fill="var(--fill-0, white)"/>
<circle id="Ellipse 16" cx="48" cy="48" r="39" fill="var(--fill-0, white)" stroke="var(--stroke-0, #3496CE)" stroke-width="2"/>
<g id="healthicons:joints-outline-24px">
<path id="Vector" fill-rule="evenodd" clip-rule="evenodd" d="M45.6019 34.6667C46.3383 34.6667 46.9352 35.2636 46.9352 36V41.6133L46.0459 41.9267C45.8978 41.9796 45.7633 42.0646 45.652 42.1756C45.5407 42.2867 45.4552 42.4209 45.4018 42.5688C45.3484 42.7167 45.3284 42.8745 45.3431 43.0311C45.3579 43.1876 45.407 43.3389 45.4871 43.4742C45.5672 43.6095 45.6762 43.7255 45.8063 43.8137C45.9364 43.902 46.0844 43.9604 46.2397 43.9848C46.395 44.0092 46.5538 43.9989 46.7047 43.9548C46.8556 43.9106 46.9949 43.8336 47.1126 43.7293L48.0019 42.9333L48.8912 43.7293C49.0088 43.8342 49.148 43.9116 49.2991 43.9562C49.4501 44.0009 49.6091 44.0115 49.7647 43.9873C49.9204 43.9632 50.0687 43.9049 50.1991 43.8166C50.3295 43.7283 50.4388 43.6123 50.519 43.4768C50.5992 43.3413 50.6485 43.1897 50.6632 43.0329C50.6779 42.8761 50.6577 42.718 50.6041 42.5699C50.5504 42.4219 50.4647 42.2875 50.3529 42.1765C50.2412 42.0655 50.1063 41.9807 49.9579 41.928L49.0686 41.6133V36C49.0686 35.2636 49.6655 34.6667 50.4019 34.6667C51.1383 34.6667 51.7352 35.2636 51.7352 36V36.592C54.1385 37.379 56.2319 38.9048 57.7167 40.9519C59.2015 42.999 60.0019 45.4627 60.0036 47.9915C60.0054 50.5204 59.2085 52.9852 57.7266 55.0344C56.2446 57.0835 54.1534 58.6123 51.7512 59.4027L51.7352 59.352V60C51.7352 60.7364 51.1383 61.3333 50.4019 61.3333C49.6655 61.3333 49.0686 60.7364 49.0686 60V54.3867L49.9579 54.0733C50.1063 54.0207 50.2412 53.9358 50.3529 53.8248C50.4647 53.7138 50.5504 53.5795 50.6041 53.4314C50.6577 53.2834 50.6779 53.1253 50.6632 52.9685C50.6485 52.8117 50.5992 52.6601 50.519 52.5246C50.4388 52.3891 50.3295 52.273 50.1991 52.1848C50.0687 52.0965 49.9204 52.0382 49.7647 52.014C49.6091 51.9899 49.4501 52.0005 49.2991 52.0451C49.148 52.0897 49.0088 52.1672 48.8912 52.272L48.0019 53.0667L47.1126 52.2707C46.995 52.1659 46.8557 52.0884 46.7047 52.0438C46.5537 51.9992 46.3947 51.9886 46.239 52.0127C46.0834 52.0369 45.9351 52.0952 45.8047 52.1834C45.6743 52.2717 45.565 52.3878 45.4848 52.5233C45.4045 52.6588 45.3553 52.8104 45.3406 52.9671C45.3259 53.1239 45.3461 53.282 45.3997 53.4301C45.4534 53.5782 45.5391 53.7125 45.6508 53.8235C45.7626 53.9345 45.8975 54.0193 46.0459 54.072L46.9352 54.3867V60C46.9352 60.7364 46.3383 61.3333 45.6019 61.3333C44.8655 61.3333 44.2686 60.7364 44.2686 60V59.408C41.8639 58.6206 39.7695 57.0935 38.2845 55.0447C36.7996 52.9959 36 50.5303 36 48C36 45.4697 36.7996 43.0041 38.2845 40.9553C39.7695 38.9065 41.8639 37.3794 44.2686 36.592V36C44.2686 35.2636 44.8655 34.6667 45.6019 34.6667ZM44.2686 56.5573V56.1307C43.4991 55.5957 42.9589 54.7908 42.7555 53.876C42.552 52.9611 42.7001 52.0032 43.1702 51.1925C43.6404 50.3817 44.3983 49.7775 45.2934 49.4998C46.1885 49.2221 47.1554 49.2911 48.0019 49.6933C48.8484 49.2911 49.8152 49.2221 50.7103 49.4998C51.6054 49.7775 52.3634 50.3817 52.8335 51.1925C53.3037 52.0032 53.4518 52.9611 53.2483 53.876C53.0448 54.7908 52.5047 55.5957 51.7352 56.1307V56.5573C53.4006 55.8309 54.8178 54.6343 55.8131 53.1143C56.8084 51.5943 57.3385 49.8169 57.3385 48C57.3385 46.1831 56.8084 44.4057 55.8131 42.8857C54.8178 41.3657 53.4006 40.1691 51.7352 39.4427V39.8693C52.5047 40.4044 53.0448 41.2092 53.2483 42.1241C53.4518 43.0389 53.3037 43.9968 52.8335 44.8075C52.3634 45.6183 51.6054 46.2225 50.7103 46.5002C49.8152 46.778 48.8484 46.7089 48.0019 46.3067C47.1554 46.7089 46.1885 46.778 45.2934 46.5002C44.3983 46.2225 43.6404 45.6183 43.1702 44.8075C42.7001 43.9968 42.552 43.0389 42.7555 42.1241C42.9589 41.2092 43.4991 40.4044 44.2686 39.8693V39.4427C42.6037 40.1695 41.187 41.3663 40.1921 42.8862C39.1972 44.4062 38.6672 46.1834 38.6672 48C38.6672 49.8166 39.1972 51.5938 40.1921 53.1138C41.187 54.6337 42.6037 55.8305 44.2686 56.5573Z" fill="var(--fill-0, #3496CE)"/>
</g>
</g>
</svg>
