<svg preserveAspectRatio="none" width="100%" height="100%" overflow="visible" style="display: block;" viewBox="0 0 143.611 55" fill="none" xmlns="http://www.w3.org/2000/svg">
<g id="logo_white-04 1">
<path id="Vector" d="M78.5192 40.3057L72.9336 53.017H84.1217L84.9459 51.1614L78.5192 40.3057Z" fill="var(--fill-0, black)"/>
<path id="Vector_2" d="M74.66 22.5024L61.4062 2.01855H60.7429L38.0938 53.018H49.2824L61.2267 26.1231L63.426 29.8366L74.66 22.5024Z" fill="var(--fill-0, black)"/>
<path id="Vector_3" d="M106.464 2.0246L73.7342 32.2269L78.5178 40.3065L84.9444 51.1622L106.767 2.0246H106.464Z" fill="url(#paint0_linear_0_38)"/>
<path id="Vector_4" d="M106.1 2.0246L105.128 2.65663L63.4265 29.8364L67.9849 37.5334L106.466 2.0246H106.1Z" fill="url(#paint1_linear_0_38)"/>
<path id="Vector_5" d="M26.496 2.00488L3.89795 52.9393H16.8661L24.9965 34.6107H39.9566L44.7577 23.7329H29.8458L34.6683 12.8826H51.5339L56.3605 2.00488H26.496Z" fill="var(--fill-0, black)"/>
<path id="Vector_6" d="M111.238 2.00488L88.6396 52.9393H101.608L109.738 34.6107H124.699L129.5 23.7329H114.588L119.411 12.8826H136.276L141.103 2.00488H111.238Z" fill="var(--fill-0, black)"/>
</g>
<defs>
<linearGradient id="paint0_linear_0_38" x1="73.7342" y1="26.5934" x2="106.767" y2="26.5934" gradientUnits="userSpaceOnUse">
<stop offset="0.0054" stop-color="#7F8CC5"/>
<stop offset="0.337" stop-color="#7481BD"/>
<stop offset="0.7312" stop-color="#606EB0"/>
</linearGradient>
<linearGradient id="paint1_linear_0_38" x1="95.0784" y1="12.7391" x2="66.7142" y2="33.6463" gradientUnits="userSpaceOnUse">
<stop stop-color="#847CB8"/>
<stop offset="0.7903" stop-color="#5B5EA5"/>
</linearGradient>
</defs>
</svg>
