<svg preserveAspectRatio="none" width="100%" height="100%" overflow="visible" style="display: block;" viewBox="0 0 40 40" fill="none" xmlns="http://www.w3.org/2000/svg">
<g id="logos:telegram" clip-path="url(#clip0_0_4)">
<path id="Vector" d="M20 0C14.6969 0 9.60625 2.10844 5.85938 5.85781C2.10866 9.60869 0.00107328 14.6956 0 20C0 25.3022 2.10938 30.3928 5.85938 34.1422C9.60625 37.8916 14.6969 40 20 40C25.3031 40 30.3938 37.8916 34.1406 34.1422C37.8906 30.3928 40 25.3022 40 20C40 14.6978 37.8906 9.60719 34.1406 5.85781C30.3938 2.10844 25.3031 0 20 0Z" fill="var(--fill-0, #3193CC)"/>
<g id="a">
<path id="Vector_2" d="M31.393 25.8393C31.3277 25.7322 30.927 24.8611 28.9984 23.0708C26.9787 21.1958 27.2498 21.5001 29.682 18.2601C31.1637 16.2854 31.7552 15.0801 31.5698 14.5636C31.3941 14.0729 30.3055 14.2026 30.3055 14.2026L26.682 14.224C26.682 14.224 26.4141 14.1876 26.2137 14.3065C26.0187 14.4243 25.8945 14.6954 25.8945 14.6954C25.8945 14.6954 25.3202 16.2233 24.5552 17.5229C22.9405 20.2636 22.2945 20.4083 22.0309 20.2379C21.417 19.8415 21.5702 18.6436 21.5702 17.794C21.5702 15.1368 21.973 14.0301 20.7859 13.744C20.3916 13.6476 20.1023 13.5854 19.093 13.5747C17.8009 13.5608 16.7059 13.579 16.0866 13.8822C15.673 14.0836 15.3559 14.5347 15.5509 14.5604C15.7898 14.5926 16.332 14.7061 16.6202 15.0983C16.992 15.6018 16.978 16.7386 16.978 16.7386C16.978 16.7386 17.1923 19.8651 16.4798 20.254C15.9902 20.5218 15.3195 19.9776 13.8805 17.4897C13.393 16.6236 12.9607 15.7275 12.5862 14.8068C12.5862 14.8068 12.4791 14.5454 12.2873 14.4051C12.0559 14.2336 11.7302 14.1801 11.7302 14.1801L8.28553 14.2015C8.28553 14.2015 7.7691 14.2165 7.57839 14.4415C7.41017 14.6418 7.56553 15.0543 7.56553 15.0543C7.56553 15.0543 10.2623 21.3629 13.3148 24.544C16.1166 27.4593 19.2955 27.2686 19.2955 27.2686H20.7366C20.7366 27.2686 21.1716 27.2204 21.3934 26.9804C21.598 26.7608 21.5905 26.3483 21.5905 26.3483C21.5905 26.3483 21.5616 24.4143 22.4605 24.1304C23.3445 23.8497 24.4812 25.9979 25.6855 26.8251C26.5952 27.4508 27.2862 27.3136 27.2862 27.3136L30.507 27.2686C30.507 27.2686 32.1912 27.1647 31.392 25.8404L31.393 25.8393Z" fill="var(--fill-0, white)"/>
</g>
</g>
<defs>
<clipPath id="clip0_0_4">
<rect width="40" height="40" fill="white"/>
</clipPath>
</defs>
</svg>
