<svg preserveAspectRatio="none" width="100%" height="100%" overflow="visible" style="display: block;" viewBox="0 0 19.9441 19.8677" fill="none" xmlns="http://www.w3.org/2000/svg">
<g id="SVGID_00000041257522246557080930000016217643393761935002_">
<path id="Vector" d="M5.92012 18.507C5.81912 18.4355 5.67992 18.4549 5.59524 18.5452C4.46362 19.7522 1.56749 20.5988 1.43483 18.9514C1.43483 17.6608 1.14493 16.5731 0.825753 15.3756C0.43484 13.909 0 12.2776 0 9.90645C0 4.25225 4.63718 0 10.1353 0C15.6334 0 19.9441 4.45983 19.9441 9.96134C19.9441 15.4628 15.4962 19.8129 10.1873 19.8129C8.30382 19.8129 7.38984 19.5476 5.92012 18.507ZM10.2895 4.90247C7.68023 4.76564 5.64411 6.57619 5.19511 9.40996C4.82328 11.7567 5.48252 14.6162 6.04639 14.7601C6.28556 14.8211 6.86111 14.3809 7.27986 13.9861C7.35859 13.9118 7.47759 13.8993 7.56992 13.9558C8.22267 14.3549 8.96169 14.6549 9.77645 14.6976C12.4551 14.8381 14.829 12.7416 14.9692 10.0627C15.1095 7.38381 12.9682 5.04295 10.2895 4.90247Z" fill="var(--fill-0, black)"/>
</g>
</svg>
