<svg preserveAspectRatio="none" width="100%" height="100%" overflow="visible" style="display: block;" viewBox="0 0 20.2381 20.2381" fill="none" xmlns="http://www.w3.org/2000/svg">
<path id="Vector" fill-rule="evenodd" clip-rule="evenodd" d="M10.119 0C4.5303 0 0 4.5303 0 10.119C0 12.0315 0.53125 13.8226 1.45512 15.3486L0.5525 18.4167C0.500675 18.5928 0.497265 18.7797 0.542628 18.9576C0.587992 19.1355 0.680453 19.298 0.810292 19.4278C0.940131 19.5576 1.10255 19.6501 1.28048 19.6955C1.45841 19.7408 1.64527 19.7374 1.82143 19.6856L4.88952 18.783C6.46682 19.7371 8.2756 20.2404 10.119 20.2381C15.7078 20.2381 20.2381 15.7078 20.2381 10.119C20.2381 4.5303 15.7078 0 10.119 0ZM7.83012 12.409C9.8772 14.4551 11.8312 14.7252 12.5213 14.7505C13.5707 14.789 14.5927 13.9876 14.9904 13.0576C15.0401 12.9418 15.0581 12.8149 15.0425 12.6898C15.0268 12.5648 14.9781 12.4462 14.9013 12.3462C14.3468 11.6379 13.597 11.1289 12.8643 10.623C12.7115 10.517 12.5234 10.4744 12.3398 10.5042C12.1562 10.534 11.9912 10.6339 11.8798 10.7829L11.2726 11.7087C11.2405 11.7583 11.1908 11.7939 11.1335 11.8081C11.0762 11.8224 11.0156 11.8144 10.964 11.7857C10.5521 11.5499 9.95208 11.1492 9.52101 10.7181C9.08994 10.287 8.71351 9.71429 8.50202 9.32875C8.47644 9.27963 8.46921 9.22299 8.48164 9.16902C8.49406 9.11505 8.52533 9.06727 8.56982 9.03429L9.50482 8.34012C9.63864 8.22435 9.72504 8.06327 9.74745 7.88775C9.76985 7.71222 9.7267 7.5346 9.62625 7.38893C9.17292 6.72512 8.6447 5.88119 7.87869 5.32161C7.77962 5.25043 7.66385 5.20604 7.54259 5.19274C7.42133 5.17945 7.29869 5.19769 7.18655 5.24571C6.2556 5.6444 5.45012 6.66643 5.48857 7.7178C5.51387 8.40792 5.78405 10.3619 7.83012 12.409Z" fill="var(--fill-0, white)"/>
</svg>
