<svg preserveAspectRatio="none" width="100%" height="100%" overflow="visible" style="display: block;" viewBox="0 0 40 40" fill="none" xmlns="http://www.w3.org/2000/svg">
<g id="boxicons:science">
<path id="Vector" d="M34.88 5.11675C32.7633 3.00008 29.18 2.75008 24.78 4.45008C23.2133 5.05008 21.6133 5.88342 19.9967 6.88342C18.38 5.86675 16.7633 5.05008 15.2133 4.45008C10.83 2.76675 7.23 3.00008 5.11333 5.11675C2.99666 7.23341 2.74666 10.8167 4.44666 15.2167C5.04666 16.7834 5.88 18.3834 6.88 20.0001C5.86333 21.6167 5.04666 23.2334 4.44666 24.7834C2.76333 29.1667 2.99666 32.7667 5.11333 34.8834C6.29666 36.0667 7.94666 36.6667 9.93 36.6667C11.4967 36.6667 13.28 36.3001 15.2133 35.5501C16.78 34.9501 18.38 34.1167 19.9967 33.1167C21.6133 34.1334 23.23 34.9501 24.78 35.5501C26.7133 36.3001 28.4967 36.6667 30.0633 36.6667C32.0467 36.6667 33.6967 36.0667 34.88 34.8834C36.9967 32.7667 37.2467 29.1834 35.5467 24.7834C34.9467 23.2167 34.1133 21.6167 33.1133 20.0001C34.13 18.3834 34.9467 16.7667 35.5467 15.2167C37.23 10.8334 36.9967 7.23341 34.88 5.11675ZM7.56333 14.0167C6.41333 11.0167 6.38 8.56675 7.48 7.46675C8.01333 6.93341 8.86333 6.66675 9.94666 6.66675C11.08 6.66675 12.48 6.96675 14.0133 7.55008C14.98 7.91675 15.98 8.40008 16.9967 8.96675C13.9924 11.2849 11.2981 13.9791 8.98 16.9834C8.41333 15.9667 7.93 14.9834 7.56333 14.0001V14.0167ZM19.9967 10.9001C23.4994 13.4246 26.5721 16.4974 29.0967 20.0001C26.5721 23.5028 23.4994 26.5756 19.9967 29.1001C16.4939 26.5756 13.4212 23.5028 10.8967 20.0001C13.4212 16.4974 16.4939 13.4246 19.9967 10.9001ZM14.0133 32.4334C11.0133 33.5834 8.56333 33.6167 7.46333 32.5167C6.36333 31.4167 6.39666 28.9667 7.54666 25.9667C7.91333 25.0001 8.39666 24.0001 8.96333 22.9834C11.2815 25.9877 13.9757 28.682 16.98 31.0001C15.9633 31.5667 14.98 32.0501 13.9967 32.4167L14.0133 32.4334ZM32.43 25.9667C33.58 28.9667 33.6133 31.4167 32.5133 32.5167C31.4133 33.6167 28.9633 33.5834 25.9633 32.4334C24.9967 32.0667 23.9967 31.5834 22.98 31.0167C25.9843 28.6986 28.6785 26.0044 30.9967 23.0001C31.5633 24.0167 32.0467 25.0001 32.4133 25.9834L32.43 25.9667ZM32.43 14.0001C32.0633 14.9667 31.58 15.9667 31.0133 16.9834C28.6952 13.9791 26.001 11.2849 22.9967 8.96675C24.0133 8.40008 24.9967 7.91675 25.98 7.55008C27.5133 6.96675 28.9133 6.66675 30.0467 6.66675C31.18 6.66675 31.98 6.93341 32.53 7.46675C33.63 8.56675 33.5967 11.0167 32.4467 14.0167L32.43 14.0001Z" fill="var(--fill-0, #3496CE)"/>
<path id="Vector_2" d="M22.9531 22.95C24.5865 21.3166 24.5865 18.6833 22.9531 17.05C21.3198 15.4166 18.6865 15.4166 17.0531 17.05C15.4198 18.6833 15.4198 21.3166 17.0531 22.95C18.6865 24.5833 21.3198 24.5833 22.9531 22.95Z" fill="var(--fill-0, #3496CE)"/>
</g>
</svg>
