<svg preserveAspectRatio="none" width="100%" height="100%" overflow="visible" style="display: block;" viewBox="0 0 0.392857 0.357148" fill="none" xmlns="http://www.w3.org/2000/svg">
<g id="Group">
<path id="Vector" d="M0.160714 0.214291C0.160714 0.223763 0.164477 0.232847 0.171175 0.239544C0.177872 0.246242 0.186957 0.250005 0.196429 0.250005C0.205901 0.250005 0.214985 0.246242 0.221682 0.239544C0.22838 0.232847 0.232143 0.223763 0.232143 0.214291C0.232143 0.204819 0.22838 0.195734 0.221682 0.189037C0.214985 0.182339 0.205901 0.178576 0.196429 0.178576C0.186957 0.178576 0.177872 0.182339 0.171175 0.189037C0.164477 0.195734 0.160714 0.204819 0.160714 0.214291Z" stroke="var(--stroke-0, white)" stroke-width="0.0357143" stroke-linecap="round" stroke-linejoin="round"/>
<path id="Vector_2" d="M0.295628 0.138398L0.255944 0.017862M0.0972094 0.138398L0.136893 0.017862M0.0575456 0.0982191H0.335312C0.341033 0.0982184 0.346688 0.0994705 0.351887 0.101889C0.357086 0.104308 0.361707 0.107837 0.365433 0.112233C0.369159 0.11663 0.371901 0.12179 0.373473 0.12736C0.375045 0.132931 0.375409 0.138779 0.374539 0.144505L0.349637 0.288183C0.347476 0.302416 0.340352 0.315394 0.329557 0.324768C0.318762 0.334143 0.305009 0.339295 0.290786 0.339291H0.102051C0.0878322 0.33929 0.0740834 0.334136 0.0632924 0.324762C0.0525014 0.315388 0.045381 0.302412 0.0432198 0.288183L0.0183182 0.144505C0.0174485 0.138779 0.0178121 0.132931 0.0193839 0.12736C0.0209557 0.12179 0.0236986 0.11663 0.0274246 0.112233C0.0311506 0.107837 0.0357715 0.104308 0.0409706 0.101889C0.0461696 0.0994705 0.0518238 0.0982184 0.0575456 0.0982191Z" stroke="var(--stroke-0, white)" stroke-width="0.0357143" stroke-linecap="round" stroke-linejoin="round"/>
</g>
</svg>
