<svg preserveAspectRatio="none" width="100%" height="100%" overflow="visible" style="display: block;" viewBox="0 0 0.401786 0.366077" fill="none" xmlns="http://www.w3.org/2000/svg">
<g id="Group">
<path id="Vector" d="M0.165179 0.218756C0.165179 0.228228 0.168941 0.237312 0.175639 0.24401C0.182337 0.250708 0.191421 0.25447 0.200893 0.25447C0.210365 0.25447 0.219449 0.250708 0.226147 0.24401C0.232844 0.237312 0.236607 0.228228 0.236607 0.218756C0.236607 0.209284 0.232844 0.2002 0.226147 0.193502C0.219449 0.186805 0.210365 0.183042 0.200893 0.183042C0.191421 0.183042 0.182337 0.186805 0.175639 0.193502C0.168941 0.2002 0.165179 0.209284 0.165179 0.218756Z" stroke="var(--stroke-0, #3193CC)" stroke-width="0.0446429" stroke-linecap="round" stroke-linejoin="round"/>
<path id="Vector_2" d="M0.300092 0.142863L0.260408 0.0223275M0.101674 0.142863L0.141357 0.0223275M0.0620099 0.102685H0.339776C0.345498 0.102684 0.351152 0.103936 0.356351 0.106355C0.36155 0.108774 0.366171 0.112303 0.369897 0.116699C0.373623 0.121095 0.376366 0.126256 0.377938 0.131826C0.379509 0.137396 0.379873 0.143245 0.379003 0.14897L0.354102 0.292649C0.35194 0.306881 0.344817 0.319859 0.334022 0.329234C0.323226 0.338609 0.309473 0.34376 0.295251 0.343756H0.106515C0.0922964 0.343755 0.0785477 0.338602 0.0677566 0.329227C0.0569656 0.319853 0.0498453 0.306878 0.047684 0.292649L0.0227825 0.14897C0.0219128 0.143245 0.0222763 0.137396 0.0238481 0.131826C0.02542 0.126256 0.0281629 0.121095 0.0318889 0.116699C0.0356148 0.112303 0.0402358 0.108774 0.0454348 0.106355C0.0506339 0.103936 0.0562881 0.102684 0.0620099 0.102685Z" stroke="var(--stroke-0, #3193CC)" stroke-width="0.0446429" stroke-linecap="round" stroke-linejoin="round"/>
</g>
</svg>
