<svg preserveAspectRatio="none" width="100%" height="100%" overflow="visible" style="display: block;" viewBox="0 0 56 56" fill="none" xmlns="http://www.w3.org/2000/svg">
<g id="logos:telegram" clip-path="url(#clip0_0_129)">
<path id="Vector" d="M28 0C20.5756 0 13.4487 2.95181 8.20312 8.20094C2.95213 13.4522 0.00150259 20.5738 0 28C0 35.4231 2.95312 42.5499 8.20312 47.7991C13.4487 53.0482 20.5756 56 28 56C35.4244 56 42.5513 53.0482 47.7969 47.7991C53.0469 42.5499 56 35.4231 56 28C56 20.5769 53.0469 13.4501 47.7969 8.20094C42.5513 2.95181 35.4244 0 28 0Z" fill="var(--fill-0, #3193CC)"/>
<path id="Vector_2" d="M12.674 27.7041C20.8377 24.1481 26.2802 21.8037 29.0015 20.6709C36.7802 17.4364 38.3946 16.8747 39.449 16.8556C39.6808 16.8519 40.1971 16.9092 40.534 17.1816C40.814 17.4113 40.8927 17.7219 40.9321 17.94C40.9671 18.1579 41.0152 18.6544 40.9759 19.042C40.5559 23.4695 38.7315 34.2137 37.804 39.1727C37.4146 41.271 36.6402 41.9745 35.8921 42.0432C34.2646 42.1928 33.0309 40.9687 31.4559 39.9366C28.9927 38.3209 27.6015 37.3155 25.2084 35.7392C22.4434 33.9175 24.2371 32.916 25.8121 31.2798C26.2234 30.8515 33.3896 24.3349 33.5252 23.7439C33.5427 23.6699 33.5602 23.3943 33.394 23.249C33.2321 23.1034 32.9915 23.1532 32.8165 23.1926C32.5671 23.2486 28.634 25.8509 21.004 30.9989C19.8884 31.7663 18.8777 32.1404 17.9677 32.1207C16.9702 32.0992 15.0452 31.5554 13.6146 31.0908C11.8646 30.5207 10.469 30.2193 10.5915 29.2511C10.6527 28.7471 11.3484 28.2313 12.674 27.7041Z" fill="var(--fill-0, white)"/>
</g>
<defs>
<clipPath id="clip0_0_129">
<rect width="56" height="56" fill="white"/>
</clipPath>
</defs>
</svg>
