<svg preserveAspectRatio="none" width="100%" height="100%" overflow="visible" style="display: block;" viewBox="0 0 56 56" fill="none" xmlns="http://www.w3.org/2000/svg">
<g id="logos:telegram" clip-path="url(#clip0_0_98)">
<path id="Vector" d="M28 0C20.5756 0 13.4487 2.95181 8.20312 8.20094C2.95213 13.4522 0.00150259 20.5738 0 28C0 35.4231 2.95312 42.5499 8.20312 47.7991C13.4487 53.0482 20.5756 56 28 56C35.4244 56 42.5513 53.0482 47.7969 47.7991C53.0469 42.5499 56 35.4231 56 28C56 20.5769 53.0469 13.4501 47.7969 8.20094C42.5513 2.95181 35.4244 0 28 0Z" fill="var(--fill-0, #3193CC)"/>
<g id="a">
<path id="Vector_2" d="M43.95 36.175C43.8585 36.025 43.2975 34.8055 40.5975 32.299C37.77 29.674 38.1495 30.1 41.5545 25.564C43.629 22.7995 44.457 21.112 44.1975 20.389C43.9515 19.702 42.4275 19.8835 42.4275 19.8835L37.3545 19.9135C37.3545 19.9135 36.9795 19.8625 36.699 20.029C36.426 20.194 36.252 20.5735 36.252 20.5735C36.252 20.5735 35.448 22.7125 34.377 24.532C32.1165 28.369 31.212 28.5715 30.843 28.333C29.9835 27.778 30.198 26.101 30.198 24.9115C30.198 21.1915 30.762 19.642 29.1 19.2415C28.548 19.1065 28.143 19.0195 26.73 19.0045C24.921 18.985 23.388 19.0105 22.521 19.435C21.942 19.717 21.498 20.3485 21.771 20.3845C22.1055 20.4295 22.8645 20.5885 23.268 21.1375C23.7885 21.8425 23.769 23.434 23.769 23.434C23.769 23.434 24.069 27.811 23.0715 28.3555C22.386 28.7305 21.447 27.9685 19.4325 24.4855C18.7499 23.273 18.1447 22.0185 17.6205 20.7295C17.6205 20.7295 17.4705 20.3635 17.202 20.167C16.878 19.927 16.422 19.852 16.422 19.852L11.5995 19.882C11.5995 19.882 10.8765 19.903 10.6095 20.218C10.374 20.4985 10.5915 21.076 10.5915 21.076C10.5915 21.076 14.367 29.908 18.6405 34.3615C22.563 38.443 27.0135 38.176 27.0135 38.176H29.031C29.031 38.176 29.64 38.1085 29.9505 37.7725C30.237 37.465 30.2265 36.8875 30.2265 36.8875C30.2265 36.8875 30.186 34.18 31.4445 33.7825C32.682 33.3895 34.2735 36.397 35.9595 37.555C37.233 38.431 38.2005 38.239 38.2005 38.239L42.7095 38.176C42.7095 38.176 45.0675 38.0305 43.9485 36.1765L43.95 36.175Z" fill="var(--fill-0, white)"/>
</g>
</g>
<defs>
<clipPath id="clip0_0_98">
<rect width="56" height="56" fill="white"/>
</clipPath>
</defs>
</svg>
