<svg preserveAspectRatio="none" width="100%" height="100%" overflow="visible" style="display: block;" viewBox="0 0 40 40" fill="none" xmlns="http://www.w3.org/2000/svg">
<g id="ph:person-simple-run-bold">
<path id="Vector" d="M23.7478 14.375C24.8603 14.375 25.9479 14.0451 26.8729 13.427C27.7979 12.8089 28.5189 11.9304 28.9446 10.9026C29.3704 9.87476 29.4818 8.74376 29.2647 7.65262C29.0477 6.56148 28.512 5.5592 27.7253 4.77253C26.9386 3.98586 25.9363 3.45013 24.8452 3.23309C23.7541 3.01604 22.6231 3.12744 21.5952 3.55318C20.5674 3.97892 19.6889 4.69989 19.0708 5.62492C18.4527 6.54995 18.1228 7.63748 18.1228 8.75C18.1228 10.2418 18.7155 11.6726 19.7703 12.7275C20.8252 13.7824 22.256 14.375 23.7478 14.375ZM23.7478 6.875C24.1187 6.875 24.4812 6.98497 24.7895 7.191C25.0979 7.39702 25.3382 7.68986 25.4801 8.03247C25.622 8.37508 25.6591 8.75208 25.5868 9.1158C25.5144 9.47951 25.3359 9.8136 25.0736 10.0758C24.8114 10.3381 24.4773 10.5166 24.1136 10.589C23.7499 10.6613 23.3729 10.6242 23.0303 10.4823C22.6877 10.3404 22.3948 10.1 22.1888 9.7917C21.9828 9.48335 21.8728 9.12084 21.8728 8.75C21.8728 8.25272 22.0704 7.77581 22.422 7.42418C22.7736 7.07255 23.2505 6.875 23.7478 6.875ZM35.6228 21.4688C35.6229 21.8278 35.5198 22.1793 35.3259 22.4815C35.132 22.7837 34.8555 23.0238 34.5291 23.1734C33.4513 23.5549 32.3176 23.7545 31.1744 23.7641C28.9869 23.7641 25.8228 23.1672 21.8353 20.7953C21.3733 21.9232 20.8373 23.0194 20.2306 24.0766C23.9228 25.4422 29.3728 28.7188 29.3728 36.25C29.3728 36.7473 29.1753 37.2242 28.8236 37.5758C28.472 37.9275 27.9951 38.125 27.4978 38.125C27.0005 38.125 26.5236 37.9275 26.172 37.5758C25.8204 37.2242 25.6228 36.7473 25.6228 36.25C25.6228 33.3297 24.5369 31.0844 22.3009 29.3844C20.8697 28.2906 19.2463 27.6656 18.015 27.3C17.8884 27.4563 17.7588 27.6125 17.6244 27.7609C14.4994 31.3344 10.6213 33.1922 6.33532 33.1922C5.82655 33.1923 5.31809 33.1667 4.81188 33.1156C4.5655 33.0929 4.32606 33.0216 4.10736 32.9058C3.88867 32.7901 3.69504 32.6322 3.53764 32.4413C3.38025 32.2504 3.2622 32.0302 3.19029 31.7935C3.11839 31.5567 3.09406 31.3081 3.1187 31.0619C3.14334 30.8157 3.21646 30.5768 3.33386 30.359C3.45126 30.1411 3.61061 29.9487 3.80272 29.7928C3.99483 29.6369 4.2159 29.5205 4.4532 29.4504C4.69049 29.3803 4.93932 29.3579 5.18532 29.3844C13.3572 30.2 17.2916 22.2094 18.59 18.7984C13.2478 16.0094 9.9572 18.5594 9.92126 18.5938C9.53178 18.8863 9.04371 19.0159 8.56039 18.9549C8.07708 18.8939 7.63647 18.6472 7.33186 18.2671C7.02725 17.8869 6.88255 17.4031 6.9284 16.9182C6.97425 16.4332 7.20705 15.9851 7.57751 15.6688C7.82282 15.4688 13.7478 10.85 22.3025 16.6594C29.0369 21.2391 32.9431 19.7719 33.0056 19.7469C33.2906 19.624 33.6017 19.5738 33.9108 19.6008C34.22 19.6278 34.5177 19.7311 34.7771 19.9015C35.0365 20.0718 35.2495 20.3039 35.3972 20.5769C35.5448 20.8499 35.6223 21.1553 35.6228 21.4656V21.4688Z" fill="var(--fill-0, #3496CE)"/>
</g>
</svg>
