<svg preserveAspectRatio="none" width="100%" height="100%" overflow="visible" style="display: block;" viewBox="0 0 27.9218 27.8148" fill="none" xmlns="http://www.w3.org/2000/svg">
<g id="SVGID_00000041257522246557080930000016217643393761935002_">
<path id="Vector" d="M8.28817 25.9098C8.14676 25.8097 7.95189 25.8368 7.83334 25.9633C6.24907 27.653 2.19449 28.8383 2.00876 26.532C2.00876 24.7251 1.60291 23.2024 1.15605 21.5259C0.608776 19.4726 0 17.1886 0 13.869C0 5.95314 6.49205 0 14.1894 0C21.8867 0 27.9218 6.24376 27.9218 13.9459C27.9218 21.648 21.6946 27.738 14.2622 27.738C11.6253 27.738 10.3458 27.3666 8.28817 25.9098ZM14.4053 6.86345C10.7523 6.6719 7.90175 9.20667 7.27316 13.1739C6.75259 16.4594 7.67552 20.4626 8.46495 20.6641C8.79978 20.7496 9.60556 20.1333 10.1918 19.5805C10.302 19.4765 10.4686 19.4591 10.5979 19.5381C11.5117 20.0969 12.5464 20.5169 13.687 20.5767C17.4372 20.7733 20.7605 17.8383 20.9569 14.0878C21.1534 10.3373 18.1554 7.06013 14.4053 6.86345Z" fill="var(--fill-0, black)"/>
</g>
</svg>
