<svg preserveAspectRatio="none" width="100%" height="100%" overflow="visible" style="display: block;" viewBox="0 0 34.0027 34" fill="none" xmlns="http://www.w3.org/2000/svg">
<g id="Group">
<path id="Vector" d="M2 24C2 26.1217 2.84285 28.1566 4.34315 29.6569C5.84344 31.1571 7.87827 32 10 32C12.1217 32 14.1566 31.1571 15.6569 29.6569C17.1571 28.1566 18 26.1217 18 24C18 21.8783 17.1571 19.8434 15.6569 18.3431C14.1566 16.8429 12.1217 16 10 16C7.87827 16 5.84344 16.8429 4.34315 18.3431C2.84285 19.8434 2 21.8783 2 24Z" stroke="var(--stroke-0, #3496CE)" stroke-width="4" stroke-linecap="round" stroke-linejoin="round"/>
<path id="Vector_2" d="M20 12C20 13.5917 20.6323 15.1181 21.7578 16.2436C22.8832 17.3691 24.4097 18.0013 26.0013 18.0013C27.593 18.0013 29.1194 17.3691 30.2449 16.2436C31.3704 15.1181 32.0027 13.5917 32.0027 12C32.0027 10.4083 31.3704 8.88188 30.2449 7.75642C29.1194 6.63095 27.593 5.99867 26.0013 5.99867C24.4097 5.99867 22.8832 6.63095 21.7578 7.75642C20.6323 8.88188 20 10.4083 20 12Z" stroke="var(--stroke-0, #3496CE)" stroke-width="4" stroke-linecap="round" stroke-linejoin="round"/>
<path id="Vector_3" d="M7 24C7 23.2044 7.31607 22.4413 7.87868 21.8787C8.44129 21.3161 9.20435 21 10 21" stroke="var(--stroke-0, #3496CE)" stroke-width="4" stroke-linecap="round" stroke-linejoin="round"/>
<path id="Vector_4" d="M16.948 20.032L21.5293 16M20.5173 9.56L11.8653 5.88533M6 5C6 5.79565 6.31607 6.55871 6.87868 7.12132C7.44129 7.68393 8.20435 8 9 8C9.79565 8 10.5587 7.68393 11.1213 7.12132C11.6839 6.55871 12 5.79565 12 5C12 4.20435 11.6839 3.44129 11.1213 2.87868C10.5587 2.31607 9.79565 2 9 2C8.20435 2 7.44129 2.31607 6.87868 2.87868C6.31607 3.44129 6 4.20435 6 5Z" stroke="var(--stroke-0, #3496CE)" stroke-width="4" stroke-linecap="round" stroke-linejoin="round"/>
</g>
</svg>
