<svg preserveAspectRatio="none" width="100%" height="100%" overflow="visible" style="display: block;" viewBox="0 0 24 22.0003" fill="none" xmlns="http://www.w3.org/2000/svg">
<g id="Group">
<path id="Vector" d="M10 13.5003C10 14.1633 10.2634 14.7992 10.7322 15.268C11.2011 15.7369 11.837 16.0003 12.5 16.0003C13.163 16.0003 13.7989 15.7369 14.2678 15.268C14.7366 14.7992 15 14.1633 15 13.5003C15 12.8372 14.7366 12.2013 14.2678 11.7325C13.7989 11.2637 13.163 11.0003 12.5 11.0003C11.837 11.0003 11.2011 11.2637 10.7322 11.7325C10.2634 12.2013 10 12.8372 10 13.5003Z" stroke="var(--stroke-0, white)" stroke-width="2" stroke-linecap="round" stroke-linejoin="round"/>
<path id="Vector_2" d="M18.1107 8.50027L15.6662 1.00027M5.8881 8.50027L8.33262 1.00027M3.44481 6.00027H20.5552C20.9077 6.00023 21.256 6.07813 21.5762 6.22865C21.8965 6.37916 22.1811 6.59872 22.4106 6.87227C22.6402 7.14583 22.8091 7.46691 22.906 7.8135C23.0028 8.16009 23.0252 8.524 22.9716 8.88027L21.4377 17.8203C21.3045 18.7058 20.8657 19.5134 20.2007 20.0967C19.5357 20.68 18.6885 21.0005 17.8124 21.0003H6.18633C5.31046 21.0002 4.46354 20.6796 3.79881 20.0963C3.13408 19.513 2.69547 18.7056 2.56234 17.8203L1.0284 8.88027C0.97483 8.524 0.997223 8.16009 1.09405 7.8135C1.19087 7.46691 1.35983 7.14583 1.58935 6.87227C1.81887 6.59872 2.10352 6.37916 2.42379 6.22865C2.74405 6.07813 3.09235 6.00023 3.44481 6.00027Z" stroke="var(--stroke-0, white)" stroke-width="2" stroke-linecap="round" stroke-linejoin="round"/>
</g>
</svg>
