<svg preserveAspectRatio="none" width="100%" height="100%" overflow="visible" style="display: block;" viewBox="0 0 40 40" fill="none" xmlns="http://www.w3.org/2000/svg">
<g id="hugeicons:bone-02">
<path id="Vector" d="M7.90927 36.6666L13.8259 30.75C14.3476 30.23 15.1876 30.255 15.8493 30.58C16.4173 30.8574 17.0425 30.9977 17.6746 30.9897C18.3067 30.9816 18.928 30.8254 19.4888 30.5336C20.0496 30.2417 20.5341 29.8225 20.9033 29.3094C21.2726 28.7963 21.5164 28.2038 21.6151 27.5794C21.7138 26.955 21.6647 26.3162 21.4717 25.7142C21.2786 25.1122 20.9471 24.564 20.5037 24.1134C20.0603 23.6628 19.5174 23.3226 18.9186 23.1199C18.3198 22.9173 17.6818 22.8579 17.0559 22.9466C16.2193 23.065 15.4126 23.4466 14.7693 24.09M17.0559 22.9466C17.1446 22.3208 17.0853 21.6828 16.8826 21.084C16.68 20.4852 16.3397 19.9423 15.8892 19.4989C15.4386 19.0555 14.8903 18.724 14.2884 18.5309C13.6864 18.3379 13.0476 18.2888 12.4232 18.3875C11.7988 18.4862 11.2063 18.73 10.6932 19.0992C10.1801 19.4685 9.76084 19.953 9.46901 20.5138C9.17719 21.0745 9.02097 21.6959 9.01291 22.328C9.00485 22.9601 9.14518 23.5853 9.4226 24.1533C9.7476 24.815 9.7726 25.655 9.2526 26.1766L3.33594 32.0933M32.0959 3.33331L26.1793 9.24998C25.6576 9.76998 24.8176 9.74498 24.1559 9.41998C23.5879 9.14255 22.9627 9.00223 22.3306 9.01029C21.6986 9.01835 21.0772 9.17457 20.5164 9.46639C19.9556 9.75821 19.4712 10.1775 19.1019 10.6906C18.7326 11.2036 18.4888 11.7962 18.3901 12.4206C18.2914 13.045 18.3405 13.6838 18.5335 14.2858C18.7266 14.8877 19.0581 15.436 19.5015 15.8866C19.9449 16.3371 20.4878 16.6774 21.0866 16.88C21.6854 17.0827 22.3234 17.142 22.9493 17.0533C23.7859 16.935 24.5926 16.5533 25.2359 15.91M22.9493 17.0533C22.8606 17.6792 22.9199 18.3172 23.1226 18.916C23.3252 19.5148 23.6655 20.0577 24.116 20.5011C24.5666 20.9445 25.1149 21.276 25.7168 21.469C26.3188 21.6621 26.9576 21.7112 27.582 21.6125C28.2064 21.5138 28.799 21.27 29.312 20.9007C29.8251 20.5314 30.2444 20.0469 30.5362 19.4862C30.828 18.9254 30.9842 18.304 30.9923 17.6719C31.0004 17.0398 30.86 16.4147 30.5826 15.8466C30.2576 15.185 30.2326 14.345 30.7526 13.8233L36.6693 7.90665M26.6693 30V33.3333M30.0026 26.6666H33.3359M13.3359 9.99998V6.66665M10.0026 13.3333H6.66927" stroke="var(--stroke-0, #509FCC)" stroke-width="4" stroke-linecap="round" stroke-linejoin="round"/>
</g>
</svg>
