<svg preserveAspectRatio="none" width="100%" height="100%" overflow="visible" style="display: block;" viewBox="0 0 40 40" fill="none" xmlns="http://www.w3.org/2000/svg">
<g id="healthicons:joints-outline-24px">
<path id="Vector" fill-rule="evenodd" clip-rule="evenodd" d="M17.0024 3.33334C17.9228 3.33334 18.669 4.07954 18.669 5.00001V12.0167L17.5574 12.4083C17.3723 12.4745 17.2042 12.5808 17.065 12.7196C16.9258 12.8583 16.819 13.0261 16.7523 13.211C16.6856 13.3958 16.6605 13.5931 16.6789 13.7888C16.6973 13.9845 16.7588 14.1736 16.8589 14.3428C16.959 14.5119 17.0952 14.6568 17.2578 14.7672C17.4205 14.8775 17.6055 14.9505 17.7996 14.981C17.9938 15.0115 18.1923 14.9987 18.3809 14.9434C18.5695 14.8882 18.7436 14.792 18.8907 14.6617L20.0024 13.6667L21.114 14.6617C21.2609 14.7927 21.435 14.8896 21.6238 14.9453C21.8126 15.0011 22.0114 15.0143 22.2059 14.9841C22.4004 14.954 22.5859 14.8811 22.7489 14.7707C22.9119 14.6604 23.0484 14.5153 23.1487 14.3459C23.249 14.1766 23.3106 13.9871 23.329 13.7911C23.3474 13.5951 23.3221 13.3975 23.2551 13.2124C23.188 13.0273 23.0808 12.8594 22.9412 12.7207C22.8015 12.5819 22.6329 12.4758 22.4474 12.41L21.3357 12.0167V5.00001C21.3357 4.07954 22.0819 3.33334 23.0024 3.33334C23.9228 3.33334 24.669 4.07954 24.669 5.00001V5.74001C27.6731 6.72372 30.2899 8.63104 32.1459 11.1899C34.0019 13.7487 35.0023 16.8284 35.0046 19.9894C35.0068 23.1505 34.0106 26.2315 32.1582 28.793C30.3058 31.3544 27.6918 33.2654 24.689 34.2533L24.669 34.19V35C24.669 35.9205 23.9228 36.6667 23.0024 36.6667C22.0819 36.6667 21.3357 35.9205 21.3357 35V27.9833L22.4474 27.5917C22.6329 27.5258 22.8015 27.4198 22.9412 27.281C23.0808 27.1423 23.188 26.9744 23.2551 26.7893C23.3221 26.6042 23.3474 26.4066 23.329 26.2106C23.3106 26.0146 23.249 25.8251 23.1487 25.6557C23.0484 25.4864 22.9119 25.3413 22.7489 25.231C22.5859 25.1206 22.4004 25.0477 22.2059 25.0175C22.0114 24.9874 21.8126 25.0006 21.6238 25.0564C21.435 25.1121 21.2609 25.209 21.114 25.34L20.0024 26.3333L18.8907 25.3383C18.7438 25.2073 18.5697 25.1105 18.3809 25.0547C18.1921 24.999 17.9933 24.9857 17.7988 25.0159C17.6043 25.0461 17.4189 25.1189 17.2558 25.2293C17.0928 25.3396 16.9563 25.4847 16.856 25.6541C16.7557 25.8235 16.6941 26.0129 16.6757 26.2089C16.6574 26.4049 16.6826 26.6025 16.7497 26.7876C16.8167 26.9727 16.9239 27.1406 17.0636 27.2794C17.2032 27.4181 17.3718 27.5242 17.5574 27.59L18.669 27.9833V35C18.669 35.9205 17.9228 36.6667 17.0024 36.6667C16.0819 36.6667 15.3357 35.9205 15.3357 35V34.26C12.3298 33.2758 9.71185 31.3669 7.85566 28.8059C5.99947 26.2449 5 23.1629 5 20C5 16.8371 5.99947 13.7551 7.85566 11.1941C9.71185 8.63317 12.3298 6.72425 15.3357 5.74001V5.00001C15.3357 4.07954 16.0819 3.33334 17.0024 3.33334ZM15.3357 30.6967V30.1633C14.3738 29.4946 13.6987 28.4885 13.4443 27.3449C13.19 26.2014 13.3751 25.004 13.9628 23.9906C14.5505 22.9772 15.4979 22.2219 16.6168 21.8747C17.7357 21.5276 18.9442 21.6139 20.0024 22.1167C21.0605 21.6139 22.269 21.5276 23.3879 21.8747C24.5068 22.2219 25.4542 22.9772 26.0419 23.9906C26.6296 25.004 26.8147 26.2014 26.5604 27.3449C26.306 28.4885 25.6309 29.4946 24.669 30.1633V30.6967C26.7507 29.7886 28.5222 28.2929 29.7664 26.3929C31.0105 24.4929 31.6732 22.2711 31.6732 20C31.6732 17.7289 31.0105 15.5071 29.7664 13.6071C28.5222 11.7071 26.7507 10.2114 24.669 9.30334V9.83668C25.6309 10.5054 26.306 11.5115 26.5604 12.6551C26.8147 13.7986 26.6296 14.996 26.0419 16.0094C25.4542 17.0228 24.5068 17.7781 23.3879 18.1253C22.269 18.4725 21.0605 18.3861 20.0024 17.8833C18.9442 18.3861 17.7357 18.4725 16.6168 18.1253C15.4979 17.7781 14.5505 17.0228 13.9628 16.0094C13.3751 14.996 13.19 13.7986 13.4443 12.6551C13.6987 11.5115 14.3738 10.5054 15.3357 9.83668V9.30334C13.2546 10.2119 11.4837 11.7078 10.2401 13.6078C8.99645 15.5078 8.33405 17.7292 8.33405 20C8.33405 22.2708 8.99645 24.4923 10.2401 26.3922C11.4837 28.2922 13.2546 29.7881 15.3357 30.6967Z" fill="var(--fill-0, #3496CE)"/>
</g>
</svg>
