<svg preserveAspectRatio="none" width="100%" height="100%" overflow="visible" style="display: block;" viewBox="0 0 156.667 60" fill="none" xmlns="http://www.w3.org/2000/svg">
<g id="logo_white-04 1">
<path id="Vector" d="M85.6571 43.9703L79.5637 57.8372H91.769L92.6681 55.8128L85.6571 43.9703Z" fill="var(--fill-0, white)"/>
<path id="Vector_2" d="M81.4475 24.5476L66.9888 2.20161H66.2652L41.5571 57.8374H53.7628L66.793 28.4975L69.1922 32.5485L81.4475 24.5476Z" fill="var(--fill-0, white)"/>
<path id="Vector_3" d="M116.142 2.20866L80.4373 35.1566L85.6557 43.9707L92.6666 55.8133L116.473 2.20866H116.142Z" fill="url(#paint0_linear_0_4)"/>
<path id="Vector_4" d="M115.745 2.20866L114.685 2.89815L69.1926 32.5488L74.1653 40.9456L116.144 2.20866H115.745Z" fill="url(#paint1_linear_0_4)"/>
<path id="Vector_5" d="M28.9048 2.18743L4.25239 57.7523H18.3994L27.269 37.7574H43.5891L48.8266 25.8907H32.5591L37.82 14.054H56.2189L61.4843 2.18743H28.9048Z" fill="var(--fill-0, white)"/>
<path id="Vector_6" d="M121.351 2.18742L96.6979 57.7523H110.846L119.715 37.7573H136.035L141.273 25.8907H125.005L130.266 14.054H148.665L153.93 2.18742H121.351Z" fill="var(--fill-0, white)"/>
</g>
<defs>
<linearGradient id="paint0_linear_0_4" x1="80.4373" y1="29.011" x2="116.473" y2="29.011" gradientUnits="userSpaceOnUse">
<stop offset="0.0054" stop-color="#7F8CC5"/>
<stop offset="0.337" stop-color="#7481BD"/>
<stop offset="0.7312" stop-color="#606EB0"/>
</linearGradient>
<linearGradient id="paint1_linear_0_4" x1="103.722" y1="13.8972" x2="72.7791" y2="36.7051" gradientUnits="userSpaceOnUse">
<stop stop-color="#847CB8"/>
<stop offset="0.7903" stop-color="#5B5EA5"/>
</linearGradient>
</defs>
</svg>
