<svg preserveAspectRatio="none" width="100%" height="100%" overflow="visible" style="display: block;" viewBox="0 0 161.889 62" fill="none" xmlns="http://www.w3.org/2000/svg">
<g id="Group 211">
<g id="logo_white-04 1">
<path id="Vector" d="M88.5124 45.4359L82.2159 59.7651H94.828L95.757 57.6733L88.5124 45.4359Z" fill="var(--fill-0, black)"/>
<path id="Vector_2" d="M84.1624 25.3658L69.2218 2.27499H68.474L42.9423 59.7653H55.5549L69.0195 29.4474L71.4986 33.6335L84.1624 25.3658Z" fill="var(--fill-0, black)"/>
<path id="Vector_3" d="M120.014 2.28228L83.1185 36.3285L88.5109 45.4364L95.7555 57.6737L120.356 2.28228H120.014Z" fill="url(#paint0_linear_0_4)"/>
<path id="Vector_4" d="M119.604 2.28228L118.508 2.99475L71.499 33.6337L76.6375 42.3104L120.016 2.28228H119.604Z" fill="url(#paint1_linear_0_4)"/>
<path id="Vector_5" d="M29.8683 2.26035L4.39413 59.6774H19.0127L28.178 39.0159H45.042L50.4542 26.7538H33.6444L39.0807 14.5225H58.0928L63.5337 2.26035H29.8683Z" fill="var(--fill-0, black)"/>
<path id="Vector_6" d="M125.396 2.26033L99.9212 59.6773H114.54L123.705 39.0159H140.57L145.982 26.7538H129.172L134.608 14.5225H153.62L159.061 2.26033H125.396Z" fill="var(--fill-0, black)"/>
</g>
</g>
<defs>
<linearGradient id="paint0_linear_0_4" x1="83.1186" y1="29.978" x2="120.356" y2="29.978" gradientUnits="userSpaceOnUse">
<stop offset="0.0054" stop-color="#7F8CC5"/>
<stop offset="0.337" stop-color="#7481BD"/>
<stop offset="0.7312" stop-color="#606EB0"/>
</linearGradient>
<linearGradient id="paint1_linear_0_4" x1="107.179" y1="14.3604" x2="75.2051" y2="37.9286" gradientUnits="userSpaceOnUse">
<stop stop-color="#847CB8"/>
<stop offset="0.7903" stop-color="#5B5EA5"/>
</linearGradient>
</defs>
</svg>
